<?xml version="1.0" encoding="utf-8"?>
<!-- Generator: Adobe Illustrator 16.0.4, SVG Export Plug-In . SVG Version: 6.00 Build 0)  -->
<!DOCTYPE svg PUBLIC "-//W3C//DTD SVG 1.1//EN" "http://www.w3.org/Graphics/SVG/1.1/DTD/svg11.dtd">
<svg version="1.1" id="Calque_1" xmlns="http://www.w3.org/2000/svg" xmlns:xlink="http://www.w3.org/1999/xlink" x="0px" y="0px"
	 width="50px" height="50px" viewBox="0 0 50 50" enable-background="new 0 0 50 50" xml:space="preserve">
<path fill="none" stroke="#404040" stroke-miterlimit="10" d="M45.822,20.185c-1.416,0.903-2.531,1.494-3.192,3.121
	c-0.282,0.699-0.603,1.264-0.784,2.012c-0.15,0.616-0.168,1.295-0.354,1.877"/>
<path fill="none" stroke="#404040" stroke-miterlimit="10" d="M41.889,27.88c0.823-0.62,0.387-2.101,2.053-1.771
	c1.104,0.221,1.104,1.42,1.824,1.998"/>
<path fill="none" stroke="#404040" stroke-miterlimit="10" d="M45.082,28.676c-0.07,0.387-0.439,0.65-0.561,1.04
	c-0.104,0.349-0.095,0.818-0.127,1.183c-0.102,1.096-0.008,2.063,0.442,3.078c0.815,1.84,1.953,3.418,4.004,3.935"/>
<path fill="none" stroke="#404040" stroke-miterlimit="10" d="M48.613,38.822c-0.135,0.408-0.885,1.059-1.211,1.438
	c-0.452,0.527-1.047,0.939-1.578,1.352c-1.414,1.099-2.967,1.099-4.736,1.031c-0.984-0.039-1.913-0.313-2.895-0.397
	c-1.104-0.097-2.194-0.188-3.307-0.229c-1.758-0.062-2.984,0.096-3.939,1.594c-0.76,1.19-0.329,2.305-0.287,3.424"/>
<path fill="none" stroke="#404040" stroke-miterlimit="10" d="M46.334,20.584c0.068-0.708-0.169-1.496-0.169-2.228
	c0-0.87,0.144-1.676,0.41-2.511c0.437-1.375,1.403-2.509,1.812-3.901c-2.031-0.309-4.113-0.608-6.156-0.936
	c-1.174-0.188-2.262-0.754-3.312-1.315c-1.08-0.576-2.256-0.925-3.313-1.589c-1.379-0.867-2.813-1.625-4.205-2.461
	c-0.979-0.588-2.115-1.373-2.676-2.387c-0.285-0.521-0.422-1.461-1.025-1.595c-0.323-0.072-0.596,0.155-0.867,0.271
	c-0.461,0.196-0.906,0.335-1.418,0.415c-0.789,0.125-0.779,0.465-0.977,1.242c-0.23,0.907-0.171,1.847-0.382,2.745
	c-0.371,1.588-2.563,2.097-3.892,2.722c-1.226,0.58-3.824,2.189-5.163,1.253c-0.538-0.376-0.176-0.937-0.124-1.538
	c0.05-0.579-0.095-1.166-0.557-1.537c-0.785-0.631-2.566,0.052-2.736,1.094c-0.107,0.661,0.313,0.778,0.728,1.198
	c0.478,0.484,0.837,1.057,0.855,1.763c0.03,1.126-1.71,1.872-2.737,1.884c-1.859,0.018-3.553-0.658-5.363-0.744
	c-0.981-0.047-2.181,0.06-3.007,0.06c0.054,0,0.109,0,0.165,0"/>
<path fill="none" stroke="#404040" stroke-miterlimit="10" d="M30.66,47.372c-1.292,0.7-3.016,0.45-4.502,0.455
	c-2.452,0.007-4.588-0.168-6.697-1.497c-1.716-1.083-3.697-1.53-5.455-2.48c-0.7-0.377-1.498-0.699-2.15-1.031
	c-0.569-0.291-1.056-0.547-1.713-0.52"/>
<path fill="none" stroke="#404040" stroke-miterlimit="10" d="M10.712,41.559c1.087-1.381,1.737-3.146,1.999-4.85
	c0.174-1.137,0.327-2.277,0.467-3.418c0.052-0.417,0.286-2.342,0.717-2.382c0.432,0.916,1.563,1.12,1.91,2.017
	c0.206-0.777-0.239-1.697-0.815-2.255c-0.337-0.33-1.775-0.897-1.778-1.3c-0.803-0.271-0.509-2.128-0.613-2.807
	c-0.171-1.108-0.813-2.396-1.474-3.361c-0.601-0.877-1.336-1.71-2.02-2.563c-0.899-1.123-2.525-1.583-3.75-2.233
	c-0.632-0.334-1.092-0.608-1.823-0.685c-0.645-0.068-1.191-0.1-1.776-0.371c-0.855-0.395-0.862-0.622-0.773-1.535
	c0.079-0.81,0.357-0.674,0.648-1.332c0.187-0.42,0.053-0.95-0.036-1.366"/>
<circle fill="#B9552D" cx="12.581" cy="17.748" r="2.438"/>
</svg>
